<svg width="16" height="12" viewBox="0 0 16 12" fill="none" xmlns="http://www.w3.org/2000/svg">
<path d="M0.21792 5.14836L4.97925 0.225277C5.26975 -0.0750924 5.74088 -0.0750924 6.03138 0.225277C6.32194 0.525708 6.32194 1.01272 6.03138 1.31316L2.54008 4.92307H15.256C15.6669 4.92307 16 5.2675 16 5.6923C16 6.11704 15.6669 6.46153 15.256 6.46153H2.54008L6.03126 10.0714C6.32183 10.3719 6.32183 10.8589 6.03126 11.1593C5.88604 11.3094 5.69559 11.3846 5.5052 11.3846C5.3148 11.3846 5.12441 11.3094 4.97913 11.1593L0.21792 6.23624C-0.0726395 5.93581 -0.0726395 5.44879 0.21792 5.14836Z" fill="#757575"/>
</svg>
