<svg width="18" height="18" viewBox="0 0 18 18" fill="none" xmlns="http://www.w3.org/2000/svg">
<path d="M8.66675 0C3.88792 0 0 3.88792 0 8.66675C0 13.4456 3.88792 17.3335 8.66675 17.3335C13.4456 17.3335 17.3335 13.4456 17.3335 8.66675C17.3332 3.88792 13.4456 0 8.66675 0ZM8.66675 15.9366C4.65809 15.9366 1.3969 12.6754 1.3969 8.66644C1.3969 4.65778 4.65809 1.39659 8.66675 1.39659C12.6754 1.39659 15.9366 4.65809 15.9366 8.66675C15.9366 12.6754 12.6754 15.9366 8.66675 15.9366Z" fill="#25CA80"/>
<path d="M11.4296 5.90311L7.38427 9.94879L5.90398 8.4685C5.63138 8.19559 5.18919 8.19559 4.91659 8.4685C4.64369 8.74109 4.64369 9.18328 4.91659 9.45588L6.89074 11.43C7.02704 11.5663 7.20597 11.6348 7.38458 11.6348C7.5632 11.6348 7.74182 11.5666 7.87812 11.43L12.4173 6.8908C12.6899 6.6179 12.6899 6.17602 12.4173 5.90311C12.1444 5.63051 11.7026 5.63051 11.4296 5.90311Z" fill="#25CA80"/>
</svg>
