<svg width="18" height="20" viewBox="0 0 18 20" fill="none" xmlns="http://www.w3.org/2000/svg">
<path d="M11.8 19C13.4973 19 14.8673 19 15.4 19C16.84 19 17.2 17.8 17.2 17.2V7.3L9.1 1L1 7.3C1 10 1 15.76 1 17.2C1 18.64 2.2 19 2.8 19C3.77592 19 5.04286 19 6.4 19" stroke="#EB722C" stroke-linecap="round" stroke-linejoin="round"/>
<path d="M6.40039 19V10.9474C6.40039 10.6316 6.58039 10 7.30039 10C8.02039 10 10.3004 10 11.3504 10C11.5004 10 11.8004 10.1895 11.8004 10.9474C11.8004 11.7053 11.8004 16.6316 11.8004 19" stroke="#EB722C"/>
</svg>
