<svg width="19" height="15" viewBox="0 0 19 15" fill="none" xmlns="http://www.w3.org/2000/svg">
<path d="M17.5186 1.47348C16.5181 0.523324 15.1799 3.44252e-05 13.7503 3.44252e-05C12.3427 3.44252e-05 11.0193 0.509126 10.0237 1.43368L9.50991 1.91114L8.99561 1.43354C8.00011 0.509092 6.67694 -1.68266e-08 5.26979 -1.68266e-08C3.86219 -1.68266e-08 2.5388 0.509092 1.54338 1.43354C0.548105 2.35775 0 3.58659 0 4.89373C0 6.20087 0.548105 7.42972 1.54338 8.35393L8.12962 14.4701C8.51011 14.8234 9.00975 15 9.5095 15C10.0091 15 10.5089 14.8234 10.8893 14.4701L17.4331 8.39387C19.4884 6.48518 19.5268 3.38076 17.5186 1.47348Z" fill="#EB4C28"/>
<path d="M17.3036 4.6881C17.25 3.88241 16.8824 3.12475 16.2686 2.55466C15.834 2.15105 15.2947 1.85779 14.709 1.7064C14.4495 1.63934 14.1805 1.78039 14.1083 2.02145C14.0361 2.26247 14.188 2.51224 14.4476 2.5793C14.8716 2.68885 15.2627 2.90185 15.5787 3.19529C16.0242 3.60896 16.2909 4.15892 16.3299 4.7439C16.3459 4.98412 16.5606 5.16901 16.8163 5.16901C16.8264 5.16901 16.8366 5.16873 16.8469 5.16811C17.1158 5.15278 17.3202 4.93784 17.3036 4.6881Z" fill="white"/>
</svg>
