<svg width="19" height="15" viewBox="0 0 19 15" fill="none" xmlns="http://www.w3.org/2000/svg">
<path d="M17.5186 1.47348C16.5181 0.523324 15.1799 3.44252e-05 13.7503 3.44252e-05C12.3427 3.44252e-05 11.0193 0.509126 10.0237 1.43368L9.50991 1.91114L8.99561 1.43354C8.00011 0.509092 6.67694 -1.68266e-08 5.26979 -1.68266e-08C3.8622 -1.68266e-08 2.5388 0.509092 1.54338 1.43354C0.548105 2.35775 0 3.58659 0 4.89373C0 6.20087 0.548105 7.42972 1.54338 8.35393L8.12962 14.4701C8.51011 14.8234 9.00975 15 9.5095 15C10.0091 15 10.5089 14.8234 10.8893 14.4701L17.4331 8.39387C19.4884 6.48518 19.5268 3.38076 17.5186 1.47348ZM16.7431 7.75317L10.1993 13.8295C9.81892 14.1827 9.19993 14.1827 8.81956 13.8295L2.23328 7.71319C1.42229 6.96012 0.97568 5.95882 0.97568 4.8937C0.97568 3.82858 1.42229 2.82728 2.23328 2.07417C3.04442 1.32089 4.12281 0.906048 5.26979 0.906048C6.41632 0.906048 7.4945 1.32089 8.30567 2.07417L8.82023 2.55201L8.03229 3.28427C7.84184 3.46126 7.84199 3.74808 8.03255 3.92493C8.12781 4.01333 8.25257 4.0575 8.37737 4.0575C8.50231 4.0575 8.62719 4.01319 8.72245 3.92469L10.7137 2.07414C11.5248 1.32085 12.6032 0.906013 13.7502 0.906013C14.915 0.906013 16.0055 1.3325 16.8209 2.10687C18.4572 3.66096 18.4223 6.19384 16.7431 7.75317Z" fill="#EB4C28"/>
<path d="M17.3036 4.68812C17.25 3.88242 16.8824 3.12476 16.2686 2.55468C15.834 2.15107 15.2947 1.85781 14.709 1.70642C14.4495 1.63936 14.1805 1.78041 14.1083 2.02146C14.0361 2.26248 14.188 2.51225 14.4476 2.57931C14.8716 2.68887 15.2627 2.90187 15.5787 3.1953C16.0242 3.60897 16.2909 4.15894 16.3299 4.74391C16.3459 4.98414 16.5606 5.16902 16.8163 5.16902C16.8264 5.16902 16.8366 5.16875 16.8469 5.16813C17.1158 5.15279 17.3202 4.93786 17.3036 4.68812Z" fill="#EB4C28"/>
</svg>
