<svg width="101" height="126" viewBox="0 0 101 126" fill="none" xmlns="http://www.w3.org/2000/svg">
<path d="M79.6304 35.1562H76.7007V28.793C80.1106 27.5836 82.5601 24.3271 82.5601 20.5078V8.78906C82.5601 7.17109 81.2483 5.85938 79.6304 5.85938H67.9116C66.2937 5.85938 64.9819 7.17109 64.9819 8.78906V20.5078C64.9819 24.3271 67.4313 27.5836 70.8413 28.793V35.1562H59.1226V26.3672C59.1226 24.1178 58.2722 22.0641 56.8774 20.5078C58.2722 18.9516 59.1226 16.8979 59.1226 14.6484C59.1226 13.4418 58.7778 11.2434 55.7974 6.10547C54.2919 3.51016 52.8065 1.35508 52.744 1.26465C52.197 0.472656 51.296 0 50.3335 0C49.371 0 48.47 0.472656 47.923 1.26465C47.8605 1.35508 46.3751 3.51016 44.8696 6.10547C41.8892 11.2434 41.5444 13.4418 41.5444 14.6484C41.5444 16.8979 42.3948 18.9516 43.7896 20.5078C42.3948 22.0641 41.5444 24.1178 41.5444 26.3672V35.1562H29.6304V28.793C33.0403 27.5836 35.4897 24.3271 35.4897 20.5078V8.78906C35.4897 7.17109 34.178 5.85938 32.5601 5.85938H20.8413C19.2233 5.85938 17.9116 7.17109 17.9116 8.78906V20.5078C17.9116 24.3271 20.361 27.5836 23.771 28.793V35.1562H20.8413C15.995 35.1562 12.0522 39.099 12.0522 43.9453C12.0522 48.7916 15.995 52.7344 20.8413 52.7344H47.4038V94.1406H44.4741C42.8562 94.1406 41.5444 95.4523 41.5444 97.0703C41.5444 98.6883 42.8562 100 44.4741 100H56.1929C57.8108 100 59.1226 98.6883 59.1226 97.0703C59.1226 95.4523 57.8108 94.1406 56.1929 94.1406H53.2632V52.7344H79.6304C84.4767 52.7344 88.4194 48.7916 88.4194 43.9453C88.4194 39.099 84.4767 35.1562 79.6304 35.1562ZM70.8413 11.7188H76.7007V20.5078C76.7007 22.1232 75.3864 23.4375 73.771 23.4375C72.1556 23.4375 70.8413 22.1232 70.8413 20.5078V11.7188ZM50.3335 8.36055C52.02 11.2023 53.2382 13.7541 53.2632 14.6508C53.262 16.265 51.9481 17.5781 50.3335 17.5781C48.7181 17.5781 47.4038 16.2639 47.4038 14.652C47.4276 13.7564 48.6462 11.2035 50.3335 8.36055ZM47.4038 26.3672C47.4038 24.7518 48.7181 23.4375 50.3335 23.4375C51.9489 23.4375 53.2632 24.7518 53.2632 26.3672V35.1562H47.4038V26.3672ZM23.771 11.7188H29.6304V20.5078C29.6304 22.1232 28.3161 23.4375 26.7007 23.4375C25.0853 23.4375 23.771 22.1232 23.771 20.5078V11.7188ZM79.6304 46.875H20.8413C19.2259 46.875 17.9116 45.5607 17.9116 43.9453C17.9116 42.3299 19.2259 41.0156 20.8413 41.0156C22.7376 41.0156 76.4292 41.0156 79.6304 41.0156C81.2458 41.0156 82.5601 42.3299 82.5601 43.9453C82.5601 45.5607 81.2458 46.875 79.6304 46.875Z" fill="#EB722C"/>
<path d="M32.5601 58.5938H6.19287V26.3672C6.19287 24.7492 4.88115 23.4375 3.26318 23.4375C1.64521 23.4375 0.333496 24.7492 0.333496 26.3672C0.333496 30.8576 0.333496 94.5277 0.333496 97.0703C0.333496 98.6883 1.64521 100 3.26318 100C4.88115 100 6.19287 98.6883 6.19287 97.0703V76.1719H29.6304V97.0703C29.6304 98.6883 30.9421 100 32.5601 100C34.178 100 35.4897 98.6883 35.4897 97.0703V75.668C38.8997 74.4586 41.3491 71.2021 41.3491 67.3828C41.3491 62.5365 37.4063 58.5938 32.5601 58.5938ZM32.5601 70.3125H6.19287V64.4531H32.5601C34.1755 64.4531 35.4897 65.7674 35.4897 67.3828C35.4897 68.9982 34.1755 70.3125 32.5601 70.3125Z" fill="#EB722C"/>
<path d="M97.4038 23.4375C95.7858 23.4375 94.4741 24.7492 94.4741 26.3672V58.5938H67.9116C63.0653 58.5938 59.1226 62.5365 59.1226 67.3828C59.1226 71.2021 61.572 74.4586 64.9819 75.668V97.0703C64.9819 98.6883 66.2937 100 67.9116 100C69.5296 100 70.8413 98.6883 70.8413 97.0703V76.1719H94.4741V97.0703C94.4741 98.6883 95.7858 100 97.4038 100C99.0218 100 100.333 98.6883 100.333 97.0703C100.333 93.9775 100.333 31.293 100.333 26.3672C100.333 24.7492 99.0218 23.4375 97.4038 23.4375ZM94.4741 70.3125H67.9116C66.2962 70.3125 64.9819 68.9982 64.9819 67.3828C64.9819 65.7674 66.2962 64.4531 67.9116 64.4531H94.4741V70.3125Z" fill="#EB722C"/>
<circle cx="50.3332" cy="99.1667" r="24.7619" fill="white"/>
<path d="M50.3332 72.5C35.6292 72.5 23.6665 84.4627 23.6665 99.1667C23.6665 113.871 35.6292 125.833 50.3332 125.833C65.0371 125.833 76.9998 113.871 76.9998 99.1667C76.9989 84.4627 65.0371 72.5 50.3332 72.5ZM50.3332 121.535C37.999 121.535 27.9646 111.501 27.9646 99.1657C27.9646 86.8315 37.999 76.7972 50.3332 76.7972C62.6674 76.7972 72.7017 86.8325 72.7017 99.1667C72.7017 111.501 62.6674 121.535 50.3332 121.535Z" fill="#25CA80"/>
<path d="M58.8338 90.6632L46.3866 103.111L41.8319 98.5567C40.9932 97.717 39.6326 97.717 38.7938 98.5567C37.9541 99.3954 37.9541 100.756 38.7938 101.595L44.8681 107.669C45.2874 108.088 45.838 108.299 46.3876 108.299C46.9372 108.299 47.4868 108.089 47.9061 107.669L61.8728 93.7023C62.7116 92.8626 62.7116 91.5029 61.8728 90.6632C61.0331 89.8245 59.6735 89.8245 58.8338 90.6632Z" fill="#25CA80"/>
</svg>
