<?xml version="1.0" encoding="UTF-8"?>
<!DOCTYPE svg PUBLIC "-//W3C//DTD SVG 1.1//EN" "http://www.w3.org/Graphics/SVG/1.1/DTD/svg11.dtd">
<svg xmlns="http://www.w3.org/2000/svg" version="1.1" width="512px" height="512px" style="shape-rendering:geometricPrecision; text-rendering:geometricPrecision; image-rendering:optimizeQuality; fill-rule:evenodd; clip-rule:evenodd" xmlns:xlink="http://www.w3.org/1999/xlink">
<g><path style="opacity:0.985" fill="#010101" d="M 264.5,15.5 C 263.999,19.8682 261.666,22.5349 257.5,23.5C 236.497,23.3334 215.497,23.5 194.5,24C 194,24.5 193.5,25 193,25.5C 192.179,37.7425 192.346,49.9092 193.5,62C 207.496,62.4999 221.496,62.6666 235.5,62.5C 322.167,62.6667 408.834,62.5 495.5,62C 496.833,49.3333 496.833,36.6667 495.5,24C 426.167,23.6667 356.833,23.3333 287.5,23C 285.504,20.8377 284.17,18.3377 283.5,15.5C 283.84,12.3252 285.507,10.1585 288.5,9C 358.5,8.33333 428.5,8.33333 498.5,9C 504.942,10.6169 509.275,14.4503 511.5,20.5C 511.5,35.8333 511.5,51.1667 511.5,66.5C 509.241,70.5949 506.074,73.9282 502,76.5C 501.667,212.167 501.333,347.833 501,483.5C 498.945,493.222 493.112,499.389 483.5,502C 343.167,502.667 202.833,502.667 62.5,502C 53.3333,499.5 47.5,493.667 45,484.5C 34.6681,398.512 24.5014,312.512 14.5,226.5C 7.0902,225.416 2.0902,221.416 -0.5,214.5C -0.5,206.5 -0.5,198.5 -0.5,190.5C 3.50562,181.534 10.5056,177.534 20.5,178.5C 19.1165,160.706 27.1165,150.54 44.5,148C 66.8308,147.5 89.1642,147.333 111.5,147.5C 111.333,103.165 111.5,58.8321 112,14.5C 113.251,11.6193 115.417,9.78597 118.5,9C 128.574,8.07695 138.574,8.41028 148.5,10C 150.617,11.7309 152.117,13.8976 153,16.5C 153.5,60.4987 153.667,104.499 153.5,148.5C 164.833,148.5 176.167,148.5 187.5,148.5C 187.833,124.158 187.5,99.8242 186.5,75.5C 182.24,72.9993 179.406,69.3327 178,64.5C 177.333,50.1667 177.333,35.8333 178,21.5C 180.167,15.3333 184.333,11.1667 190.5,9C 213.5,8.33333 236.5,8.33333 259.5,9C 262.493,10.1585 264.16,12.3252 264.5,15.5 Z"/></g>
<g><path style="opacity:0.998" fill="#fbd0a2" d="M 264.5,15.5 C 270.833,15.5 277.167,15.5 283.5,15.5C 284.17,18.3377 285.504,20.8377 287.5,23C 356.833,23.3333 426.167,23.6667 495.5,24C 496.833,36.6667 496.833,49.3333 495.5,62C 408.834,62.5 322.167,62.6667 235.5,62.5C 235.5,49.8333 235.5,37.1667 235.5,24.5C 243.019,24.825 250.352,24.4916 257.5,23.5C 261.666,22.5349 263.999,19.8682 264.5,15.5 Z"/></g>
<g><path style="opacity:1" fill="#0dce8d" d="M 137.5,24.5 C 135.5,24.5 133.5,24.5 131.5,24.5C 131.5,65.8333 131.5,107.167 131.5,148.5C 129.833,148.5 128.167,148.5 126.5,148.5C 126.5,106.833 126.5,65.1667 126.5,23.5C 130.371,23.185 134.038,23.5184 137.5,24.5 Z"/></g>
<g><path style="opacity:1" fill="#00f2a5" d="M 137.5,24.5 C 137.5,65.8333 137.5,107.167 137.5,148.5C 135.5,148.5 133.5,148.5 131.5,148.5C 131.5,107.167 131.5,65.8333 131.5,24.5C 133.5,24.5 135.5,24.5 137.5,24.5 Z"/></g>
<g><path style="opacity:1" fill="#f8b882" d="M 257.5,23.5 C 250.352,24.4916 243.019,24.825 235.5,24.5C 235.5,37.1667 235.5,49.8333 235.5,62.5C 221.496,62.6666 207.496,62.4999 193.5,62C 192.346,49.9092 192.179,37.7425 193,25.5C 193.5,25 194,24.5 194.5,24C 215.497,23.5 236.497,23.3334 257.5,23.5 Z"/></g>
<g><path style="opacity:1" fill="#fedece" d="M 239.5,77.5 C 239.5,104.5 239.5,131.5 239.5,158.5C 237.037,156.539 234.703,154.372 232.5,152C 229.911,150.803 227.244,149.803 224.5,149C 217.508,148.5 210.508,148.334 203.5,148.5C 203.5,124.833 203.5,101.167 203.5,77.5C 215.5,77.5 227.5,77.5 239.5,77.5 Z"/></g>
<g><path style="opacity:1" fill="#fdece4" d="M 239.5,77.5 C 260.167,77.5 280.833,77.5 301.5,77.5C 302.514,105.012 316.68,120.012 344,122.5C 372.331,121.002 387.164,106.002 388.5,77.5C 421.167,77.5 453.833,77.5 486.5,77.5C 486.667,188.834 486.5,300.167 486,411.5C 479.915,412.312 473.748,412.812 467.5,413C 465.859,414.129 464.859,415.629 464.5,417.5C 461.262,418.748 457.762,419.415 454,419.5C 450.238,419.415 446.738,418.748 443.5,417.5C 443.141,415.629 442.141,414.129 440.5,413C 435.511,412.501 430.511,412.334 425.5,412.5C 424.884,401.376 419.384,393.71 409,389.5C 408.333,384.167 408.333,378.833 409,373.5C 414.333,372.167 417.667,368.833 419,363.5C 418.044,317.406 397.877,282.573 358.5,259C 323.488,240.869 286.821,236.369 248.5,245.5C 247.996,239.175 248.496,232.842 250,226.5C 256.905,224.596 261.572,220.262 264,213.5C 264.667,205.833 264.667,198.167 264,190.5C 259.826,181.995 252.992,177.995 243.5,178.5C 244.25,171.378 242.917,164.712 239.5,158.5C 239.5,131.5 239.5,104.5 239.5,77.5 Z"/></g>
<g><path style="opacity:1" fill="#97e3f8" d="M 333.5,77.5 C 333.479,89.4512 337.812,99.4512 346.5,107.5C 326.833,107.167 316.833,97.1667 316.5,77.5C 322.167,77.5 327.833,77.5 333.5,77.5 Z"/></g>
<g><path style="opacity:1" fill="#c6edfc" d="M 333.5,77.5 C 346.833,77.5 360.167,77.5 373.5,77.5C 372.864,95.1316 363.864,105.132 346.5,107.5C 337.812,99.4512 333.479,89.4512 333.5,77.5 Z"/></g>
<g><path style="opacity:1" fill="#cae4e7" d="M 73.5,163.5 C 71.7579,168.308 71.0912,173.308 71.5,178.5C 59.8333,178.5 48.1667,178.5 36.5,178.5C 36.335,175.15 36.5017,171.817 37,168.5C 37.8333,166.333 39.3333,164.833 41.5,164C 52.1615,163.5 62.8281,163.333 73.5,163.5 Z"/></g>
<g><path style="opacity:1" fill="#ddebf0" d="M 73.5,163.5 C 123.168,163.333 172.834,163.5 222.5,164C 227.947,167.269 229.947,172.102 228.5,178.5C 186.832,178.333 145.165,178.5 103.5,179C 100.179,180.812 98.8454,183.645 99.5,187.5C 96.2622,186.252 92.7622,185.585 89,185.5C 85.2378,185.585 81.7378,186.252 78.5,187.5C 79.2556,181.986 76.9222,178.986 71.5,178.5C 71.0912,173.308 71.7579,168.308 73.5,163.5 Z"/></g>
<g><path style="opacity:1" fill="#edf4f5" d="M 99.5,187.5 C 99.8477,190.019 101.181,191.853 103.5,193C 151.833,193.333 200.167,193.667 248.5,194C 249.833,199.667 249.833,205.333 248.5,211C 184.834,211.5 121.168,211.667 57.5,211.5C 57.5,205.5 57.5,199.5 57.5,193.5C 62.8437,193.666 68.1771,193.499 73.5,193C 76.4207,192.248 78.0874,190.415 78.5,187.5C 81.7378,186.252 85.2378,185.585 89,185.5C 92.7622,185.585 96.2622,186.252 99.5,187.5 Z"/></g>
<g><path style="opacity:1" fill="#ddebf0" d="M 57.5,193.5 C 57.5,199.5 57.5,205.5 57.5,211.5C 43.496,211.667 29.496,211.5 15.5,211C 14.1667,205.333 14.1667,199.667 15.5,194C 29.496,193.5 43.496,193.333 57.5,193.5 Z"/></g>
<g><path style="opacity:1" fill="#e21f2c" d="M 195.5,228.5 C 152.337,227.501 109.003,227.168 65.5,227.5C 69.6104,265.882 74.1104,304.216 79,342.5C 79.3826,343.056 79.8826,343.389 80.5,343.5C 70.3688,354.132 60.0355,364.632 49.5,375C 48.3999,375.432 47.7332,374.932 47.5,373.5C 41.4133,324.545 35.7466,275.545 30.5,226.5C 86.1677,226.333 141.834,226.5 197.5,227C 196.956,227.717 196.289,228.217 195.5,228.5 Z"/></g>
<g><path style="opacity:1" fill="#f92a39" d="M 195.5,228.5 C 157.5,267.167 119.167,305.5 80.5,343.5C 79.8826,343.389 79.3826,343.056 79,342.5C 74.1104,304.216 69.6104,265.882 65.5,227.5C 109.003,227.168 152.337,227.501 195.5,228.5 Z"/></g>
<g><path style="opacity:1" fill="#fdfdfd" d="M 87.5,407.5 C 86.7321,406.737 86.2321,405.737 86,404.5C 84.3346,391.178 82.8346,377.844 81.5,364.5C 126.965,318.535 172.632,272.701 218.5,227C 223.864,226.171 229.198,226.337 234.5,227.5C 233.723,235.203 232.556,242.87 231,250.5C 189.635,267.569 163.969,297.903 154,341.5C 131.965,363.702 109.799,385.702 87.5,407.5 Z"/></g>
<g><path style="opacity:1" fill="#f3a76b" d="M 295.5,256.5 C 292.482,256.335 289.482,256.502 286.5,257C 271.129,262.893 257.462,271.393 245.5,282.5C 240.821,282.334 236.155,282.501 231.5,283C 226.235,287.924 226.235,292.758 231.5,297.5C 218.952,315.475 211.952,335.475 210.5,357.5C 196.167,357.5 181.833,357.5 167.5,357.5C 171.802,314.693 193.469,284.193 232.5,266C 252.79,257.009 273.79,253.843 295.5,256.5 Z"/></g>
<g><path style="opacity:1" fill="#fdbb85" d="M 295.5,256.5 C 339.935,259.496 373.101,280.162 395,318.5C 401.001,331.169 404.167,344.503 404.5,358.5C 325.332,358.833 246.332,358.499 167.5,357.5C 181.833,357.5 196.167,357.5 210.5,357.5C 211.952,335.475 218.952,315.475 231.5,297.5C 237.176,297.666 242.843,297.499 248.5,297C 252.212,294.487 253.378,290.987 252,286.5C 250.399,284.281 248.233,282.948 245.5,282.5C 257.462,271.393 271.129,262.893 286.5,257C 289.482,256.502 292.482,256.335 295.5,256.5 Z"/></g>
<g><path style="opacity:1" fill="#0b0705" d="M 278.5,267.5 C 284.29,267.096 289.956,267.596 295.5,269C 298.886,272.373 299.386,276.206 297,280.5C 296.25,281.126 295.416,281.626 294.5,282C 288.5,282.667 282.5,282.667 276.5,282C 272.054,276.397 272.721,271.564 278.5,267.5 Z"/></g>
<g><path style="opacity:1" fill="#070402" d="M 245.5,282.5 C 248.233,282.948 250.399,284.281 252,286.5C 253.378,290.987 252.212,294.487 248.5,297C 242.843,297.499 237.176,297.666 231.5,297.5C 226.235,292.758 226.235,287.924 231.5,283C 236.155,282.501 240.821,282.334 245.5,282.5 Z"/></g>
<g><path style="opacity:1" fill="#090604" d="M 323.5,282.5 C 329.593,282.139 335.593,282.639 341.5,284C 345.875,289.121 345.209,293.455 339.5,297C 333.833,297.667 328.167,297.667 322.5,297C 316.881,291.595 317.215,286.762 323.5,282.5 Z"/></g>
<g><path style="opacity:1" fill="#ebf2f3" d="M 81.5,364.5 C 82.8346,377.844 84.3346,391.178 86,404.5C 86.2321,405.737 86.7321,406.737 87.5,407.5C 77.1877,418.479 66.521,429.146 55.5,439.5C 53.0068,424.572 51.5068,409.572 51,394.5C 61.0349,384.298 71.2016,374.298 81.5,364.5 Z"/></g>
<g><path style="opacity:1" fill="#f92a39" d="M 173.5,485.5 C 148.005,486.498 122.339,486.831 96.5,486.5C 93.1927,466.981 90.8594,447.314 89.5,427.5C 110.146,406.188 131.146,385.188 152.5,364.5C 154.616,369.116 158.116,372.116 163,373.5C 163.667,378.833 163.667,384.167 163,389.5C 148.314,396.554 142.981,408.22 147,424.5C 149.51,433.01 154.843,439.01 163,442.5C 160.79,458.354 164.29,472.687 173.5,485.5 Z"/></g>
<g><path style="opacity:1" fill="#fbce59" d="M 212.5,373.5 C 212.5,378.5 212.5,383.5 212.5,388.5C 200.833,388.5 189.167,388.5 177.5,388.5C 177.5,383.5 177.5,378.5 177.5,373.5C 189.167,373.5 200.833,373.5 212.5,373.5 Z"/></g>
<g><path style="opacity:1" fill="#fee076" d="M 212.5,373.5 C 272.833,373.5 333.167,373.5 393.5,373.5C 393.5,378.5 393.5,383.5 393.5,388.5C 384.75,388.09 376.084,388.59 367.5,390C 356.959,396.868 347.292,404.868 338.5,414C 334.5,416 330.5,416 326.5,414C 319.5,407.667 312.5,401.333 305.5,395C 302.661,393.08 299.661,391.413 296.5,390C 268.542,388.543 240.542,388.043 212.5,388.5C 212.5,383.5 212.5,378.5 212.5,373.5 Z"/></g>
<g><path style="opacity:1" fill="#b85c4b" d="M 291.5,404.5 C 261.165,404.333 230.832,404.5 200.5,405C 197.856,412.5 197.856,420 200.5,427.5C 189.5,427.5 178.5,427.5 167.5,427.5C 162.371,425.244 160.371,421.244 161.5,415.5C 160.452,410.41 162.119,406.576 166.5,404C 208.335,403.169 250.002,403.335 291.5,404.5 Z"/></g>
<g><path style="opacity:1" fill="#c96d58" d="M 291.5,404.5 C 293.255,405.072 294.922,405.906 296.5,407C 303.705,413.708 311.038,420.208 318.5,426.5C 279.337,427.499 240.004,427.832 200.5,427.5C 197.856,420 197.856,412.5 200.5,405C 230.832,404.5 261.165,404.333 291.5,404.5 Z"/></g>
<g><path style="opacity:1" fill="#c76c57" d="M 404.5,427.5 C 384.993,427.83 365.659,427.497 346.5,426.5C 354.603,419.569 362.603,412.403 370.5,405C 376.395,403.876 382.395,403.376 388.5,403.5C 405.468,399.315 412.634,405.648 410,422.5C 408.924,425.079 407.091,426.746 404.5,427.5 Z"/></g>
<g><path style="opacity:1" fill="#fbdccc" d="M 443.5,417.5 C 446.738,418.748 450.238,419.415 454,419.5C 457.762,419.415 461.262,418.748 464.5,417.5C 463.415,422.17 465.082,425.17 469.5,426.5C 474.64,427.488 479.974,427.821 485.5,427.5C 485.5,445.167 485.5,462.833 485.5,480.5C 485.089,484.079 483.089,486.246 479.5,487C 451.833,487.667 424.167,487.667 396.5,487C 406.795,473.998 410.962,459.165 409,442.5C 416.167,439.333 421.333,434.167 424.5,427C 429.833,426.667 435.167,426.333 440.5,426C 443.125,423.804 444.125,420.97 443.5,417.5 Z"/></g>
<g><path style="opacity:1" fill="#844639" d="M 318.5,426.5 C 319.289,426.783 319.956,427.283 320.5,428C 269.332,428.832 218.332,428.665 167.5,427.5C 178.5,427.5 189.5,427.5 200.5,427.5C 240.004,427.832 279.337,427.499 318.5,426.5 Z"/></g>
<g><path style="opacity:1" fill="#86483a" d="M 346.5,426.5 C 365.659,427.497 384.993,427.83 404.5,427.5C 384.671,428.662 364.671,428.829 344.5,428C 345.044,427.283 345.711,426.783 346.5,426.5 Z"/></g>
<g><path style="opacity:1" fill="#7e6e66" d="M 469.5,426.5 C 475.167,426.5 480.833,426.5 486.5,426.5C 486.83,444.674 486.497,462.674 485.5,480.5C 485.5,462.833 485.5,445.167 485.5,427.5C 479.974,427.821 474.64,427.488 469.5,426.5 Z"/></g>
<g><path style="opacity:1" fill="#e21e2c" d="M 89.5,427.5 C 90.8594,447.314 93.1927,466.981 96.5,486.5C 86.1667,486.5 75.8333,486.5 65.5,486.5C 62.909,485.746 61.0757,484.079 60,481.5C 58.7513,473.853 58.0846,466.186 58,458.5C 68.3683,447.965 78.8683,437.631 89.5,427.5 Z"/></g>
<g><path style="opacity:1" fill="#563e2b" d="M 393.5,443.5 C 335.833,443.5 278.167,443.5 220.5,443.5C 206.5,443.5 192.5,443.5 178.5,443.5C 178.5,448.833 178.5,454.167 178.5,459.5C 177.511,454.025 177.178,448.358 177.5,442.5C 249.669,442.167 321.669,442.501 393.5,443.5 Z"/></g>
<g><path style="opacity:1" fill="#eda369" d="M 220.5,443.5 C 217.81,460.576 222.81,474.743 235.5,486C 279.165,486.5 322.832,486.667 366.5,486.5C 312.668,487.665 258.668,487.832 204.5,487C 189.777,483.446 181.11,474.279 178.5,459.5C 178.5,454.167 178.5,448.833 178.5,443.5C 192.5,443.5 206.5,443.5 220.5,443.5 Z"/></g>
<g><path style="opacity:1" fill="#febc85" d="M 220.5,443.5 C 278.167,443.5 335.833,443.5 393.5,443.5C 393.666,449.842 393.5,456.175 393,462.5C 389.379,476.289 380.545,484.289 366.5,486.5C 322.832,486.667 279.165,486.5 235.5,486C 222.81,474.743 217.81,460.576 220.5,443.5 Z"/></g>
<g><path style="opacity:1" fill="#921821" d="M 173.5,485.5 C 174.289,485.783 174.956,486.283 175.5,487C 138.664,487.831 101.998,487.664 65.5,486.5C 75.8333,486.5 86.1667,486.5 96.5,486.5C 122.339,486.831 148.005,486.498 173.5,485.5 Z"/></g>
</svg>
